<?xml version="1.0" encoding="UTF-8"?>
<svg width="32px" height="32px" viewBox="0 0 32 32" version="1.1" xmlns="http://www.w3.org/2000/svg">
    <title>libgo-logo</title>
    <g stroke="none" stroke-width="1" fill="none" fill-rule="evenodd">
        <rect fill="#1e293b" x="0" y="0" width="32" height="32" rx="4"></rect>
        <g transform="translate(4.000000, 4.000000)" fill="#38bdf8" fill-rule="nonzero">
            <path d="M12,0 C18.6274,0 24,5.37258 24,12 C24,18.6274 18.6274,24 12,24 C5.37258,24 0,18.6274 0,12 C0,5.37258 5.37258,0 12,0 Z M12,3 C7.02943,3 3,7.02943 3,12 C3,16.9706 7.02943,21 12,21 C16.9706,21 21,16.9706 21,12 C21,7.02943 16.9706,3 12,3 Z M12,6 C15.3137,6 18,8.68629 18,12 C18,15.3137 15.3137,18 12,18 C8.68629,18 6,15.3137 6,12 C6,8.68629 8.68629,6 12,6 Z M12,9 C10.3431,9 9,10.3431 9,12 C9,13.6569 10.3431,15 12,15 C13.6569,15 15,13.6569 15,12 C15,10.3431 13.6569,9 12,9 Z"></path>
        </g>
    </g>
</svg>